<svg width="284" height="284" viewBox="0 0 284 284" fill="none" xmlns="http://www.w3.org/2000/svg">
<path fill-rule="evenodd" clip-rule="evenodd" d="M141.5 222.6C140 222.2 138.5 221.8 137 221.3C135.6 220.8 134.5 220.5 133.1 219.9C130.5 218.7 128 217.6 125.9 216C124.7 215.1 123.6 214.5 122.5 213.6C120.3 212 115.3 207.6 114.7 205.4L141.4 205.3L141.5 222.6ZM143.9 205.3L175.2 205.1C169.4 216.3 156.3 222.9 144 223L143.9 205.3ZM129.9 221.9C125.4 221.8 112.5 217.8 108.6 215.9C103.3 213.3 96.3 209.6 91.7 205.7L110.6 205.6C118.4 215.1 120.4 215.5 129.9 221.9ZM143.8 179.8C157.4 179.7 170 177.5 176.3 188.7C179 193.6 178 197.3 176.9 202.2L144 202.4L143.8 179.8ZM112.6 202.6C110.2 200 106.2 191.7 105.9 180L141.4 179.8L141.5 202.4L112.6 202.6ZM109.2 202.6C104 202.6 98.1 202.6 92.9 202.7C88.9 202.7 91.1 202.8 88.1 202.7C85.5 200.6 77.7 192.2 75.7 189.4C73.6 186.5 71.7 183.3 70 180.1L103 179.9C103.9 190.4 106.2 197.7 109.2 202.6ZM64 174C64.7 177 69.9 185.6 71.7 188.1C75.8 194 80.3 199.3 85.8 204.1L93.6 210.3C99.5 214.5 102 215.4 107.8 218.3C118.2 223.4 131.5 225.6 143.6 225.5C159.1 225.4 167.5 220.6 176.1 213.5C192.2 200.4 192.8 180.3 173.1 174.8C167 173.1 159.9 173.5 152.3 173.5C122.9 173.7 93.4 173.9 64 174Z" fill="#2D2E83" stroke="#2D2E83" stroke-miterlimit="10"/>
<path fill-rule="evenodd" clip-rule="evenodd" d="M143.2 76.9004L172 77.0004C177.7 84.2004 179.1 94.6004 179.1 100.1L143.3 100.3L143.2 76.9004ZM106.6 84.0004C106.6 81.9004 107.2 77.4004 109 77.4004L140.7 77.1004L140.8 100.3C131.5 100.4 119.4 101.6 112.8 96.4004C112.4 96.1004 112.1 95.8004 111.7 95.5004C108.6 92.7004 106.7 88.5004 106.6 84.0004ZM175.4 77.0004C178.2 77.0004 192.3 76.8004 195.7 76.8004C203 83.5004 209.8 90.1004 214.3 99.8004C204.2 99.9004 191.9 100 181.8 100C181.2 89.1004 179.3 83.6004 175.4 77.0004ZM143.1 57.4004C153 57.5004 167.3 67.2004 170.7 74.6004L143.2 74.7004L143.1 57.4004ZM140.6 57.1004L140.7 74.8004L109.5 75.0004C110.5 71.2004 117.6 64.8004 121.3 62.5004C125.5 59.7004 133.7 57.1004 140.6 57.1004ZM152.2 57.3004C164.8 58.3004 187.5 68.0004 193.3 74.4004L174 74.6004C169.8 66.7004 160.5 60.3004 152.2 57.3004ZM96.3999 87.4004C96.3999 91.8004 98.5999 96.8004 101.7 99.8004C104.8 102.9 108.6 104.7 113.9 105.6C123.8 107.3 137.4 106.5 148.7 106.4C172.7 106.3 196.7 106.1 220.7 106C219.5 100.8 212.4 90.5004 209 86.3004C195.8 69.8004 180.3 61.2004 160.5 56.3004C149.5 53.5004 132.7 53.4004 122.3 57.7004C114.3 61.0004 106.5 67.0004 101.3 73.8004C99.2999 76.7004 96.3999 82.7004 96.3999 87.4004Z" fill="#2D2E83" stroke="#2D2E83" stroke-miterlimit="10"/>
<path fill-rule="evenodd" clip-rule="evenodd" d="M64.6001 212.3C65.2001 213.5 64.1001 212.5 66.6001 214.9L75.3001 222.7C81.2001 227.5 85.9001 230.7 92.6001 234.2C94.4001 235.2 96.0001 236.3 97.7001 237.3L120.2 248C121.4 248.5 122 248.8 123.1 249.2C128.1 251.3 132 252.3 136.3 256.5C138.3 258.5 142.3 263.4 142.6 266.7H143.4C143.7 263.4 147.6 258.5 149.6 256.5C152.7 253.4 155.6 252 159.8 250.2L187.8 236.9C195.2 232.3 203.7 228.1 210.1 222.2C212.7 219.9 218.8 214.8 220.4 212.4L204.2 215.6C202.2 216 201.2 216.6 199 216.6C199.9 217.8 200.4 217.5 201.5 219.1C201 221.4 199.4 221.9 197.6 223C193.6 225.4 187.1 229 183 230.7C178.3 232.7 171.5 235.5 166.3 236.6C164.3 237 162.4 237.8 160.1 237.8C149 237.9 150.9 236 146.9 235V228.8H139.1V233.7C139.1 235.9 132.3 237.8 129.7 237.9C122.3 237.9 125.9 238.1 119 236.7C113.1 235.5 102.8 231.2 97.3001 228.5C94.3001 227 84.8001 222.8 83.9001 219.7C84.9001 218.1 85.5001 218.4 86.4001 217.2C84.6001 217.2 82.6001 216.3 80.7001 216C78.9001 215.6 77.3001 215.2 75.3001 214.8C73.6001 214.5 71.7001 214 69.9001 213.6C68.2001 213.1 66.0001 213 64.6001 212.3Z" fill="#2D2E83" stroke="#2D2E83" stroke-miterlimit="10"/>
<path fill-rule="evenodd" clip-rule="evenodd" d="M56.7998 136.6L227.9 135.7C227.9 133.8 227.4 129.9 227 128.3C187.7 128.5 148.3 128.7 109 128.9C94.8998 129 79.2998 131.7 70.1998 120.5C65.1998 114.3 66.0998 107.6 66.0998 101.5C61.8998 106.3 56.6998 128.1 56.7998 136.6Z" fill="#2D2E83" stroke="#2D2E83" stroke-miterlimit="10"/>
<path fill-rule="evenodd" clip-rule="evenodd" d="M57.6999 151.8L175.7 151.2C191.2 151.1 213.3 147.1 218.3 167.7C219.3 172 218.6 173.9 218.7 178.5C218.7 178.4 218.8 178.2 218.9 178.2C219.2 179.1 225.5 162.7 227 153.4C227.4 151 228.1 146.3 228 143.4L56.8999 144.3C56.7999 146.6 57.4999 149.8 57.6999 151.8Z" fill="#2D2E83" stroke="#2D2E83" stroke-miterlimit="10"/>
<path fill-rule="evenodd" clip-rule="evenodd" d="M61.0998 166.6C87.3998 166.5 113.7 166.3 140.1 166.2C151.3 166.1 169.4 165 178.6 167C189 169.2 196.9 177.8 197 188.6C197 197 191.8 205 188.1 212.1C189.5 211.7 194 207.9 195.4 206.6C196.4 205.7 197.6 204.5 198.5 203.5C203.6 197.6 208.6 189.2 208.6 181.1C208.6 175 205.7 168.8 202.7 165.6C201.4 164.2 198.2 162.1 196.3 161.3C194.4 160.5 190.1 159.2 187.9 159C181.9 158.6 153.6 159.2 145.2 159.2C116.5 159.4 87.8998 159.5 59.2998 159.7C59.8998 161.5 59.9998 164.6 61.0998 166.6Z" fill="#2D2E83" stroke="#2D2E83" stroke-miterlimit="10"/>
<path fill-rule="evenodd" clip-rule="evenodd" d="M225.7 120.4C224.8 118.5 224.7 115.6 223.6 113.4C197.1 113.5 170.7 113.7 144.2 113.8C133.9 113.9 113.5 114.9 105.9 112.8C97.8997 110.7 92.4997 106.9 89.4997 99.5C86.1997 91.4 87.9997 85.8 91.0997 78.4C91.7997 76.6 92.8997 74.4 93.7997 72.9C94.4997 71.7 96.2997 68.8 96.5997 67.5C85.5997 75 74.8997 87.3 76.6997 102.2C77.5997 110.3 82.0997 115.6 88.3997 118.5C95.7997 121.9 103.4 121 113.8 121C151.1 120.8 188.4 120.6 225.7 120.4Z" fill="#2D2E83" stroke="#2D2E83" stroke-miterlimit="10"/>
<path fill-rule="evenodd" clip-rule="evenodd" d="M36.5998 128.9C36.5998 130 45.7998 144.3 47.3998 145.3C47.3998 143.1 46.9998 143 46.8998 141.2L47.7998 128.6L50.8998 113.6C50.8998 108.6 47.8998 98.0998 47.8998 91.7998C46.3998 92.8998 44.8998 97.5998 43.8998 99.7998C40.9998 106.6 36.4998 121.9 36.5998 128.9Z" fill="#2D2E83" stroke="#2D2E83" stroke-miterlimit="10"/>
<path fill-rule="evenodd" clip-rule="evenodd" d="M57.8999 184.4C57.6999 183.6 54.1999 176.5 52.9999 172.8C52.2999 170.7 51.4999 168.6 50.8999 166.6L47.7999 153.2L39.7999 144.7C39.0999 143.8 38.6999 143.2 37.9999 142.3C37.2999 141.4 36.8999 140.7 35.8999 140.3C35.8999 146.8 37.0999 156.1 38.3999 162.6L41.9999 175.5C42.7999 177.6 42.2999 176.4 44.0999 177.6C48.2999 180.4 48.4999 181.4 54.6999 183.4C55.8999 183.8 56.9999 183.9 57.8999 184.4Z" fill="#2D2E83" stroke="#2D2E83" stroke-miterlimit="10"/>
<path fill-rule="evenodd" clip-rule="evenodd" d="M237.4 147.5C238.8 145.8 240 144.4 241.3 142.4L244.9 136.9C245.7 135.7 248.1 132.2 248.3 131.2C248.5 130.3 247.5 124.3 247.3 122.9C246.6 118.4 242 98.9002 238.3 94.7002L235.4 114C234.3 121.6 237.2 123.3 237.3 133C237.3 135.9 237.8 137.3 237.8 140C237.7 142.6 237.3 144.5 237.4 147.5Z" fill="#2D2E83" stroke="#2D2E83" stroke-miterlimit="10"/>
<path fill-rule="evenodd" clip-rule="evenodd" d="M227.3 183.401C231.8 183.401 236 181.401 238.8 179.701C242.5 177.401 242.6 176.601 244.5 169.801C246.8 161.401 248.5 153.301 248.5 142.601C247 143.601 246.3 145.101 244.9 146.401L237.1 154.201C235.5 156.001 236.3 156.601 235.4 160.301C234.4 164.701 233.3 168.301 231.9 172.401L227.3 183.401Z" fill="#2D2E83" stroke="#2D2E83" stroke-miterlimit="10"/>
<path fill-rule="evenodd" clip-rule="evenodd" d="M54.0999 103.2C55.2999 102.3 54.6999 102.7 55.2999 101.2C55.6999 100.4 56.0999 99.4998 56.4999 98.6998L60.1999 91.6998C64.3999 84.1998 68.3999 80.6998 70.8999 76.8998C71.8999 75.2998 72.0999 73.5998 72.2999 71.2998C72.6999 67.5998 73.1999 63.3998 72.2999 59.7998C70.8999 60.6998 69.4999 62.3998 67.9999 63.6998L64.9999 66.8998C64.5999 67.3998 64.3999 67.6998 63.7999 68.1998C60.7999 71.2998 58.5999 74.1998 55.9999 77.6998C51.0999 84.2998 51.1999 84.0998 51.4999 88.3998C51.9999 96.5998 53.7999 99.4998 54.0999 103.2Z" fill="#2D2E83" stroke="#2D2E83" stroke-miterlimit="10"/>
<path fill-rule="evenodd" clip-rule="evenodd" d="M231.4 105.2C232.6 99.7002 233.7 99.1002 234.6 91.1002C235.2 86.0002 234.2 86.0002 229.8 79.5002L224.3 72.2002C223.5 71.3002 223 70.6002 222.3 69.7002L213.5 61.2002C213.5 67.0002 213.5 76.7002 217 80.9002C219.3 83.7002 222.8 88.9002 224.7 92.2002L228.8 100C229.6 101.7 230.3 104.4 231.4 105.2Z" fill="#2D2E83" stroke="#2D2E83" stroke-miterlimit="10"/>
<path fill-rule="evenodd" clip-rule="evenodd" d="M187.1 56.0002C187.1 51.3002 184.4 42.3002 181.4 41.0002C176.5 38.8002 162 34.7002 157.3 34.7002C158 37.7002 159.6 41.1002 160.9 43.9002C162.6 47.6002 160.4 46.3002 169 48.6002C172.5 49.6002 175.4 50.7002 178.5 51.9002L187.1 56.0002Z" fill="#2D2E83" stroke="#2D2E83" stroke-miterlimit="10"/>
<path fill-rule="evenodd" clip-rule="evenodd" d="M78.5997 211C77.5997 209.4 71.0997 203.6 68.3997 200.2L62.4997 192.1C60.9997 189.9 60.7997 190.4 58.0997 189.5C54.7997 188.4 50.8997 186.9 46.6997 186.9C48.5997 190.4 57.7997 206.7 60.5997 208C62.1997 208.7 76.0997 211 78.5997 211Z" fill="#2D2E83" stroke="#2D2E83" stroke-miterlimit="10"/>
<path fill-rule="evenodd" clip-rule="evenodd" d="M207.3 210.3C210.2 210.3 223 208.5 224.6 207.4C226.8 205.9 237.2 189.7 238 186.2C235 186.3 229.9 188.3 227.4 189.2C221.2 191.5 221.9 192.9 217.1 199.1C216.5 199.9 216.2 200.1 215.6 200.9C214.8 201.8 214.8 202 213.9 202.9C212.7 204.2 211.6 205.1 210.5 206.5L209.9 207.1C208.6 208.5 207.7 208.6 207.3 210.3Z" fill="#2D2E83" stroke="#2D2E83" stroke-miterlimit="10"/>
<path fill-rule="evenodd" clip-rule="evenodd" d="M99.1001 54.8004C99.6001 54.7004 110.6 50.1004 116.2 48.4004C121.2 46.9004 121 48.4004 123 43.7004C123.7 42.0004 126 36.5004 126.1 34.9004C122.4 34.9004 110.7 38.1004 107.2 39.5004C104.6 40.5004 103.7 40.2004 101.5 45.4004C100.3 48.3004 99.1001 50.7004 99.1001 54.8004Z" fill="#2D2E83" stroke="#2D2E83" stroke-miterlimit="10"/>
<path fill-rule="evenodd" clip-rule="evenodd" d="M77.7998 69.8004C80.5998 67.9004 84.1998 64.4004 87.9998 61.8004C92.7998 58.6004 91.9998 60.0004 92.7998 57.6004C94.6998 52.0004 96.7998 48.2004 99.4998 42.9004C96.5998 43.1004 82.5998 51.6004 79.4998 54.2004C78.4998 55.0004 79.0998 54.3004 78.6998 55.1004C77.7998 56.6004 77.7998 67.2004 77.7998 69.8004Z" fill="#2D2E83" stroke="#2D2E83" stroke-miterlimit="10"/>
<path fill-rule="evenodd" clip-rule="evenodd" d="M208.6 71.1006L208.1 59.6006C207.9 55.0006 208.1 56.4006 202.8 52.5006C200.1 50.5006 190.2 44.4006 187 43.6006C190.5 48.8006 194.1 59.7006 194.6 60.3006L205.1 68.3006C206.4 69.4006 206.9 70.7006 208.6 71.1006Z" fill="#2D2E83" stroke="#2D2E83" stroke-miterlimit="10"/>
<path fill-rule="evenodd" clip-rule="evenodd" d="M141.9 26.2002L145.6 34.6002L153.5 34.5002L147.5 38.6002L149.9 46.3002L141.9 42.2002L134 46.4002L136.3 38.7002L130.3 34.6002H138.2L141.9 26.2002Z" fill="#BE1622" stroke="#BE1622" stroke-miterlimit="10"/>
<path d="M25.5998 183.1C23.2998 184.2 20.5998 185.5 18.5998 186.4C20.7998 186.2 23.0998 185.9 25.7998 185.8L35.0998 185.3L35.7998 186.9L28.9998 193C26.9998 194.8 25.0998 196.3 23.3998 197.6C25.4998 196.8 28.2998 195.7 30.7998 194.8L38.0998 192.2L38.9998 194.2L21.9998 200.1L20.7998 197.4L27.5998 191.2C29.2998 189.6 30.8998 188.3 32.4998 187.2C30.5998 187.5 28.5998 187.7 26.1998 187.8L16.9998 188.3L15.7998 185.6L31.8998 177.5L32.7998 179.6L25.5998 183.1Z" fill="#2D2E83" stroke="#2D2E83"/>
<path d="M16.9997 148.9C23.0997 148.1 26.8997 151.4 27.4997 155.9C28.0997 160.6 24.8997 164.4 19.4997 165.1C13.7997 165.9 9.69974 162.9 8.99974 158.1C8.29974 153.3 11.6997 149.6 16.9997 148.9ZM19.0997 162.7C22.8997 162.2 26.0997 159.7 25.5997 156C25.0997 152.4 21.4997 150.7 17.3997 151.3C13.7997 151.8 10.3997 154.1 10.8997 158C11.3997 161.8 15.1997 163.2 19.0997 162.7Z" fill="#2D2E83" stroke="#2D2E83"/>
<path d="M8.59987 131.2C8.49987 130.1 8.49986 128.6 8.69986 126.7C8.89986 124.4 9.59986 122.8 10.6999 121.8C11.5999 120.9 12.9999 120.5 14.5999 120.6C16.1999 120.8 17.3999 121.4 18.2999 122.4C19.4999 123.8 19.8999 125.8 19.6999 128.1C19.5999 128.8 19.4999 129.4 19.2999 129.9L26.4999 130.6L26.2999 132.9L8.59987 131.2ZM17.3999 129.8C17.5999 129.3 17.6999 128.7 17.7999 127.9C18.0999 125.1 16.8999 123.3 14.4999 123C12.0999 122.8 10.7999 124.3 10.4999 126.8C10.3999 127.8 10.3999 128.6 10.4999 129L17.3999 129.8Z" fill="#2D2E83" stroke="#2D2E83"/>
<path d="M34.0998 95.7002C34.1998 96.6002 34.0998 98.4002 33.3998 100.5C31.6998 105.3 27.4998 107.8 21.8998 105.9C16.5998 104.1 14.1998 99.2002 15.9998 94.0002C16.6998 91.9002 17.5998 90.7002 18.0998 90.2002L19.6998 91.4002C18.9998 92.1002 18.2998 93.1002 17.7998 94.6002C16.3998 98.6002 18.0998 102.1 22.4998 103.6C26.6998 105 30.1998 103.6 31.5998 99.5002C32.0998 98.1002 32.2998 96.7002 32.0998 95.7002H34.0998Z" fill="#2D2E83" stroke="#2D2E83"/>
<path d="M27.2001 71.3006L33.9001 75.5006L34.3001 74.9006L30.8001 65.4006L32.3001 63.1006L35.7001 73.2006C37.6001 70.9006 39.8001 70.9006 42.3001 71.4006C44.2001 71.8006 45.9001 72.2006 47.7001 72.4006L46.4001 74.5006C45.0001 74.4006 43.4001 74.0006 41.9001 73.6006C39.5001 73.0006 37.5001 73.1006 35.9001 75.7006L35.5001 76.3006L42.5001 80.7006L41.3001 82.7006L26.1001 73.1006L27.2001 71.3006Z" fill="#2D2E83" stroke="#2D2E83"/>
<path d="M54.5001 55.6006L57.1001 60.9006L55.4001 62.6006L47.1001 45.5006L49.1001 43.6006L66.1001 52.1006L64.3001 53.8006L59.0001 51.2006L54.5001 55.6006ZM57.4001 50.2006L52.5001 47.8006C51.4001 47.2006 50.5001 46.7006 49.5001 46.1006C50.0001 47.0006 50.6001 48.0006 51.1001 49.1006L53.5001 54.0006L57.4001 50.2006Z" fill="#2D2E83" stroke="#2D2E83"/>
<path d="M76.0997 44.4C76.0997 43.8 75.9997 43.2 75.8997 42.6C75.4997 40.4 74.5997 38.1 75.0997 36.1C75.1997 35.5 75.4997 35 75.8997 34.5C73.7997 35.3 71.4997 34.9 70.1997 32.8C69.3997 31.5 69.2997 30.1 69.6997 28.8C70.1997 27.4 71.3997 26.1 73.3997 24.9C74.6997 24.1 76.0997 23.4 77.2997 23L86.4997 38.1L84.4997 39.3L80.3997 32.7L78.8997 33.6C77.9997 34.2 77.3997 34.8 77.1997 35.7C76.7997 37.4 77.6997 39.9 78.0997 41.7C78.1997 42.2 78.1997 42.6 78.2997 43.1L76.0997 44.4ZM76.0997 25.6C75.6997 25.7 74.9997 26 74.0997 26.6C72.1997 27.8 70.8997 29.5 72.1997 31.6C73.2997 33.4 75.5997 33.5 77.7997 32.2C78.4997 31.8 79.0997 31.4 79.4997 31.1L76.0997 25.6Z" fill="#2D2E83" stroke="#2D2E83"/>
<path d="M120.2 25.1998C119.5 25.7998 117.9 26.6998 115.8 27.1998C110.9 28.3998 106.4 26.2998 105 20.4998C103.6 14.9998 106.4 10.3998 111.8 8.99981C113.9 8.49981 115.5 8.59981 116.1 8.69981L116 10.6998C115.1 10.4998 113.8 10.4998 112.3 10.8998C108.2 11.8998 106.2 15.1998 107.3 19.7998C108.4 24.0998 111.5 26.1998 115.7 25.0998C117.1 24.6998 118.4 24.0998 119.2 23.3998L120.2 25.1998Z" fill="#2D2E83" stroke="#2D2E83"/>
<path d="M143.5 5.7002L144.2 23.7002L141.9 23.8002L141.2 7.8002L132.9 8.1002L133.6 24.1002L131.3 24.2002L130.6 6.2002L143.5 5.7002Z" fill="#2D2E83" stroke="#2D2E83"/>
<path d="M160.1 19.4006L157.3 24.7006L154.9 24.3006L164 7.60059L166.7 8.10059L169.7 26.8006L167.3 26.4006L166.4 20.5006L160.1 19.4006ZM166.2 18.6006L165.3 13.2006C165.1 12.0006 165 10.9006 164.9 9.80059H164.8C164.4 10.8006 163.9 11.8006 163.4 12.9006L160.8 17.7006L166.2 18.6006Z" fill="#2D2E83" stroke="#2D2E83"/>
<path d="M191.8 33.9005C190.9 34.0005 189.1 33.8005 187.1 32.9005C182.4 31.0005 180 26.7005 182.2 21.2005C184.3 15.9005 189.2 13.8005 194.4 15.9005C196.5 16.7005 197.6 17.7005 198.1 18.2005L196.9 19.7005C196.3 19.0005 195.2 18.2005 193.8 17.7005C189.9 16.2005 186.3 17.6005 184.6 22.0005C183 26.1005 184.3 29.6005 188.3 31.2005C189.6 31.7005 191.1 32.0005 192.1 31.9005L191.8 33.9005Z" fill="#2D2E83" stroke="#2D2E83"/>
<path d="M206.9 36.4998L202.2 40.1998L200.2 38.8998L215.2 27.2998L217.5 28.7998L212.7 47.1998L210.6 45.7998L212.1 39.9998L206.9 36.4998ZM212.8 38.1998L214.2 32.8998C214.5 31.6998 214.9 30.6998 215.2 29.5998C214.4 30.2998 213.6 31.0998 212.7 31.7998L208.4 35.1998L212.8 38.1998Z" fill="#2D2E83" stroke="#2D2E83"/>
<path d="M234.6 45.1004L230.7 41.3004L232.1 39.9004L241.6 49.2004L240.2 50.6004L236.3 46.7004L225 58.1004L223.3 56.5004L234.6 45.1004Z" fill="#2D2E83" stroke="#2D2E83"/>
<path d="M247.6 72.6L243.6 66.9L238.3 70.6L242.8 77L241.2 78.1L235.4 69.8L250.1 59.5L255.7 67.5L254.1 68.6L249.9 62.6L245.2 65.9L249.2 71.6L247.6 72.6Z" fill="#2D2E83" stroke="#2D2E83"/>
<path d="M267.8 91.3002L251.4 98.6002L250.5 96.5002L265.1 90.0002L262.7 84.6002L257.7 86.8002C254.1 88.4002 250.1 90.0002 247.5 88.4002C246.8 88.0002 246 87.2002 245.6 86.2002L247.2 85.2002C247.6 85.8002 248.3 86.3002 248.8 86.5002C250.6 87.3002 253.9 86.0002 256.6 84.8002L263.5 81.7002L267.8 91.3002Z" fill="#2D2E83" stroke="#2D2E83"/>
<path d="M273.2 108.5L266.6 109.9C266.8 110.4 267.1 111.4 267.2 112C268 115.6 267.1 119.1 263.2 120C261.6 120.4 260.2 120.1 259.2 119.5C257.4 118.4 256.3 116.1 255.8 113.7C255.5 112.1 255.3 110.9 255.2 110.1L272.7 106.3L273.2 108.5ZM257.4 112C257.4 112.5 257.5 113.1 257.7 113.9C258.3 116.4 259.9 118.3 262.6 117.7C265.3 117.1 265.9 114.7 265.3 112.2C265.2 111.6 265 110.9 264.8 110.4L257.4 112Z" fill="#2D2E83" stroke="#2D2E83"/>
<path d="M276.8 134.2L269.3 134.4L269.5 143.1L277 142.9L277.1 145.2L259.1 145.6V143.3L267.5 143.1L267.3 134.4L258.9 134.6V132.3L276.9 131.9L276.8 134.2Z" fill="#2D2E83" stroke="#2D2E83"/>
<path d="M262.8 161.7L257.6 158.7L258.1 156.4L274.5 166L273.9 168.7L255.1 171.1L255.6 168.7L261.5 168L262.8 161.7ZM263.3 167.9L268.7 167.2C269.9 167 271 167 272.1 166.9V166.8C271.1 166.3 270.1 165.8 269.1 165.3L264.4 162.5L263.3 167.9Z" fill="#2D2E83" stroke="#2D2E83"/>
<path d="M252.3 179.8C252.6 180.3 253 180.7 253.5 181.1C255.1 182.6 257.2 184 258 185.9C258.2 186.5 258.3 187.1 258.3 187.7C259.5 185.8 261.7 184.8 263.9 185.8C265.3 186.4 266.2 187.5 266.6 188.8C267 190.2 266.7 192 265.8 194.1C265.2 195.5 264.5 196.9 263.8 197.9L247.5 190.9L248.4 188.8L255.6 191.9L256.3 190.3C256.7 189.3 256.8 188.4 256.5 187.6C255.8 186 253.6 184.5 252.3 183.2C252 182.9 251.7 182.6 251.3 182.1L252.3 179.8ZM263.2 195C263.5 194.7 263.8 194 264.3 193.1C265.2 191 265.2 188.9 262.9 187.9C260.9 187.1 259 188.3 258 190.7C257.7 191.4 257.4 192.1 257.3 192.5L263.2 195Z" fill="#2D2E83" stroke="#2D2E83"/>
<path d="M65.6999 258.3C64.7999 258.2 63.0999 257.5 61.3999 256.2C57.2999 253.2 56.0999 248.4 59.5999 243.6C62.8999 239 68.1999 238.2 72.6999 241.4C74.4999 242.7 75.3999 243.9 75.6999 244.5L74.0999 245.7C73.6999 244.9 72.7999 243.9 71.5999 243C68.1999 240.5 64.2999 241.1 61.5999 244.9C58.9999 248.5 59.3999 252.2 62.8999 254.8C64.0999 255.6 65.3999 256.2 66.3999 256.4L65.6999 258.3Z" fill="#2D2E83" stroke="#2D2E83"/>
<path d="M102.9 257.099L96.4 273.799L94.2 272.899L100 257.999L94.5 255.799L92.5 260.899C91.1 264.499 89.3 268.499 86.4 269.199C85.6 269.399 84.5 269.399 83.5 268.999L83.9 267.199C84.6 267.399 85.5 267.199 86 266.999C87.8 266.199 89.3 262.999 90.3 260.299L93.1 253.199L102.9 257.099Z" fill="#2D2E83" stroke="#2D2E83"/>
<path d="M122.3 261.799L124.9 269.899C125.2 270.999 125.5 272.099 125.8 273.199H125.9C126.3 272.299 126.8 271.399 127.4 270.099L131.2 262.899L133.6 263.199L128.7 271.899C127.5 274.199 126 276.699 124.5 278.199C123.2 279.499 121.8 280.099 120.2 279.899C119.6 279.799 119.2 279.699 118.9 279.599L119.3 277.699C119.5 277.799 119.8 277.799 120.2 277.899C122 278.099 123.3 276.499 124.1 275.299C124.3 274.899 124.3 274.699 124.2 274.199L119.8 261.399L122.3 261.799Z" fill="#2D2E83" stroke="#2D2E83"/>
<path d="M151.9 263.1L158.5 270.2L159.2 270.1L158.1 262.2L160.3 261.9L161.4 269.8L162.1 269.7L166.5 261L169.2 260.6L164 269.7C166.8 269.6 168.2 271.2 169.5 273.6C170.3 275.2 171 276.9 172 278.4L169.7 278.7C168.9 277.6 168.3 275.9 167.7 274.7C166.5 272.4 165.4 271 162.6 271.4L161.8 271.5L163 279.7L160.8 280L159.6 271.8L158.8 271.9C155.9 272.3 155.3 274 154.8 276.5C154.5 277.8 154.3 279.6 153.9 280.9L151.6 281.2C152.1 279.5 152.3 277.7 152.7 275.9C153.2 273.2 154.1 271.4 156.8 270.6L149.4 263.3L151.9 263.1Z" fill="#2D2E83" stroke="#2D2E83"/>
<path d="M195.3 251.199L196.1 252.999L189 256.099L190.9 260.499C191.4 260.199 192.3 259.699 192.9 259.499C194.5 258.799 196.1 258.499 197.6 258.699C199.2 258.999 200.6 259.899 201.5 261.799C202.2 263.399 202.2 264.799 201.7 265.999C200.9 267.899 198.9 269.399 196.7 270.399C195.2 271.099 194 271.399 193.3 271.699L186.1 255.299L195.3 251.199ZM194.7 269.099C195.2 268.999 195.8 268.799 196.5 268.399C197.8 267.799 199 266.799 199.4 265.599C199.7 264.799 199.7 263.799 199.2 262.799C198.6 261.499 197.7 260.899 196.7 260.699C195.6 260.499 194.4 260.699 193.2 261.199C192.7 261.399 192.1 261.799 191.6 261.999L194.7 269.099Z" fill="#2D2E83" stroke="#2D2E83"/>
<path d="M222.2 249.1L224.2 254.7L222.3 256.2L216.1 238.3L218.3 236.6L234.2 247L232.2 248.5L227.2 245.2L222.2 249.1ZM225.8 244.1L221.2 241.1C220.2 240.4 219.3 239.7 218.4 239.1C218.8 240.1 219.3 241.1 219.7 242.2L221.5 247.4L225.8 244.1Z" fill="#2D2E83" stroke="#2D2E83"/>
<path d="M238.9 226.8C241.44 226.8 243.5 224.74 243.5 222.2C243.5 219.659 241.44 217.6 238.9 217.6C236.359 217.6 234.3 219.659 234.3 222.2C234.3 224.74 236.359 226.8 238.9 226.8Z" fill="#BE1622" stroke="#BE1622" stroke-miterlimit="10"/>
<path d="M45.8998 226.8C48.4403 226.8 50.4998 224.74 50.4998 222.2C50.4998 219.659 48.4403 217.6 45.8998 217.6C43.3593 217.6 41.2998 219.659 41.2998 222.2C41.2998 224.74 43.3593 226.8 45.8998 226.8Z" fill="#BE1622" stroke="#BE1622" stroke-miterlimit="10"/>
</svg>
